<svg width="229" height="60" viewBox="0 0 229 60" fill="none" xmlns="http://www.w3.org/2000/svg">
<path d="M91.647 49.902L91.5152 50.759H90.1309L91.1197 41.7278H92.504L92.0425 45.749C92.6359 44.9579 93.3609 44.5624 94.2838 44.5624C95.0749 44.5624 95.6022 44.8261 95.9978 45.3535C96.3933 45.8808 96.5252 46.6059 96.3933 47.5289C96.2614 48.5177 95.9318 49.3747 95.4045 49.9679C94.8771 50.5612 94.152 50.8908 93.2951 50.8908C92.504 50.9567 91.9766 50.6271 91.647 49.902ZM91.8448 47.5289L91.7789 48.254C91.7129 48.7154 91.8448 49.045 92.1085 49.3747C92.3721 49.7043 92.7017 49.836 93.1632 49.836C93.6906 49.836 94.086 49.6383 94.4156 49.2428C94.7452 48.8472 94.943 48.3198 95.009 47.5947C95.0749 47.0015 95.009 46.54 94.7452 46.2104C94.4816 45.8808 94.152 45.6831 93.6905 45.6831C93.2291 45.6831 92.7676 45.8808 92.4381 46.2104C92.1085 46.54 91.9106 47.0015 91.8448 47.5289Z" fill="#303030"/>
<path d="M103.183 44.76L99.6237 51.8135C98.8985 53.0661 98.0415 53.7253 96.9868 53.7253C96.7232 53.7253 96.4595 53.7253 96.2617 53.6593L96.3936 52.5386C96.5913 52.6046 96.7891 52.6705 96.9868 52.6705C97.5142 52.6705 97.9098 52.4069 98.2394 51.8795L98.7667 50.8907L96.9868 44.826H98.503L99.4918 49.2427C99.4918 49.3085 99.4918 49.4404 99.5577 49.7041C99.5577 49.6381 99.6237 49.4404 99.6896 49.3085L101.733 44.8919H103.183V44.76Z" fill="#303030"/>
<path d="M108.062 47.7266L107.732 50.8249H106.348L107.27 42.3212H109.841C110.83 42.3212 111.555 42.5189 112.083 42.9804C112.544 43.4417 112.742 44.1009 112.676 44.892C112.61 45.749 112.215 46.4082 111.621 46.9356C111.028 47.4629 110.237 47.7266 109.248 47.7266H108.062ZM108.523 43.4417L108.193 46.5401H109.116C109.71 46.5401 110.237 46.4082 110.567 46.1445C110.896 45.8809 111.094 45.4853 111.16 44.9579C111.292 43.9691 110.764 43.4417 109.578 43.4417H108.523Z" fill="#303030"/>
<path d="M118.412 50.8248H117.027L117.423 47.5288C117.555 46.3423 117.225 45.7489 116.434 45.7489C116.039 45.7489 115.643 45.9467 115.379 46.2763C115.05 46.6059 114.852 47.0674 114.786 47.5947L114.457 50.8908H113.072L114.061 41.8596H115.445L114.984 45.8149C115.511 45.0238 116.236 44.6942 117.093 44.6942C118.478 44.6942 119.071 45.5512 118.873 47.1992L118.412 50.8248Z" fill="#303030"/>
<path d="M121.18 50.8248H119.796L120.455 44.7601H121.839L121.18 50.8248ZM121.312 43.4417C121.114 43.4417 120.916 43.3758 120.785 43.244C120.653 43.1121 120.587 42.9144 120.587 42.7166C120.587 42.5189 120.719 42.3211 120.916 42.1234C121.114 41.9915 121.312 41.9255 121.51 41.9255C121.773 41.9255 121.905 41.9915 122.103 42.1234C122.235 42.2551 122.301 42.453 122.301 42.7166C122.301 42.9144 122.169 43.1121 121.971 43.244C121.773 43.3758 121.576 43.4417 121.312 43.4417Z" fill="#303030"/>
<path d="M124.083 50.8248H122.698L123.687 41.7936H125.071L124.083 50.8248Z" fill="#303030"/>
<path d="M126.981 50.8248H125.597L126.586 41.7936H127.97L126.981 50.8248Z" fill="#303030"/>
<path d="M129.881 50.8248H128.497L129.156 44.7601H130.54L129.881 50.8248ZM130.013 43.4417C129.816 43.4417 129.618 43.3758 129.486 43.244C129.354 43.1121 129.288 42.9144 129.288 42.7166C129.288 42.5189 129.42 42.3211 129.618 42.1234C129.816 41.9915 130.013 41.9255 130.211 41.9255C130.475 41.9255 130.607 41.9915 130.805 42.1234C130.937 42.2551 131.002 42.453 131.002 42.7166C131.002 42.9144 130.87 43.1121 130.672 43.244C130.409 43.3758 130.211 43.4417 130.013 43.4417Z" fill="#303030"/>
<path d="M132.849 49.9019L132.387 53.5934H131.003L131.992 44.6941H133.376L133.244 45.7488C133.837 44.9579 134.563 44.5623 135.485 44.5623C136.276 44.5623 136.803 44.826 137.199 45.3533C137.594 45.8807 137.727 46.6058 137.594 47.5287C137.462 48.5176 137.133 49.3745 136.605 49.9677C136.078 50.5611 135.353 50.8907 134.496 50.8907C133.771 50.9566 133.244 50.627 132.849 49.9019ZM133.112 47.5287L133.046 48.2538C132.98 48.7153 133.112 49.0449 133.376 49.3745C133.639 49.7041 133.969 49.836 134.431 49.836C134.958 49.836 135.353 49.6381 135.683 49.2426C136.013 48.8472 136.21 48.3198 136.276 47.5946C136.342 47.0014 136.276 46.5399 136.013 46.2103C135.748 45.8807 135.419 45.683 134.958 45.683C134.496 45.683 134.034 45.8807 133.706 46.2103C133.376 46.5399 133.177 47.0014 133.112 47.5287Z" fill="#303030"/>
<path d="M141.284 50.4952L141.416 49.045C141.549 49.1768 141.681 49.2428 141.878 49.3745C142.076 49.5064 142.208 49.5724 142.406 49.6383C142.603 49.7041 142.801 49.7701 142.998 49.7701C143.196 49.836 143.395 49.836 143.526 49.836C144.12 49.836 144.58 49.7041 144.91 49.5064C145.24 49.3086 145.372 49.045 145.437 48.6494C145.437 48.4517 145.437 48.254 145.372 48.1221C145.305 47.9902 145.174 47.8585 144.977 47.7266C144.844 47.5947 144.647 47.4629 144.383 47.397C144.185 47.2651 143.922 47.1993 143.658 47.0674C143.395 46.9355 143.13 46.7378 142.866 46.6059C142.603 46.474 142.406 46.2763 142.273 46.0786C142.141 45.8808 142.009 45.6831 141.878 45.4193C141.812 45.1556 141.746 44.892 141.812 44.5624C141.878 44.1669 142.009 43.8373 142.208 43.5077C142.406 43.244 142.669 42.9803 142.998 42.7825C143.328 42.5847 143.658 42.4529 144.053 42.387C144.449 42.3211 144.844 42.2551 145.24 42.2551C146.162 42.2551 146.756 42.387 147.151 42.5847L147.019 43.969C146.558 43.6394 145.965 43.4417 145.174 43.4417C144.977 43.4417 144.779 43.4417 144.515 43.5077C144.317 43.5736 144.12 43.6396 143.922 43.7054C143.723 43.7713 143.592 43.9032 143.46 44.035C143.328 44.1669 143.263 44.3647 143.263 44.5624C143.263 44.7601 143.263 44.892 143.328 45.0239C143.395 45.1557 143.526 45.2875 143.658 45.4193C143.79 45.5512 143.987 45.6171 144.185 45.749C144.383 45.8808 144.647 45.9467 144.91 46.0786C145.174 46.2104 145.437 46.4082 145.701 46.54C145.965 46.7378 146.162 46.8697 146.361 47.1333C146.558 47.331 146.691 47.5947 146.756 47.7925C146.822 48.0562 146.888 48.3198 146.822 48.6494C146.756 49.1109 146.624 49.4405 146.426 49.7701C146.229 50.0997 145.965 50.2975 145.635 50.4952C145.305 50.693 144.977 50.8248 144.58 50.8907C144.185 50.9567 143.79 51.0226 143.328 51.0226C143.196 51.0226 142.998 51.0226 142.801 51.0226C142.603 51.0226 142.406 50.9567 142.141 50.9567C141.944 50.8907 141.746 50.8907 141.549 50.8248C141.549 50.6271 141.416 50.5612 141.284 50.4952Z" fill="#303030"/>
<path d="M153.35 48.122H149.197C149.132 48.7153 149.263 49.1108 149.592 49.4404C149.922 49.77 150.317 49.9019 150.911 49.9019C151.57 49.9019 152.163 49.7041 152.757 49.3085L152.625 50.4292C152.031 50.7588 151.241 50.9566 150.384 50.9566C149.46 50.9566 148.802 50.693 148.34 50.0996C147.878 49.5723 147.747 48.7812 147.813 47.7923C147.945 46.8695 148.275 46.0784 148.933 45.4852C149.592 44.8919 150.317 44.5623 151.109 44.5623C151.9 44.5623 152.56 44.826 152.955 45.3533C153.35 45.8807 153.482 46.6058 153.417 47.5946L153.35 48.122ZM152.098 47.1991C152.163 46.6718 152.098 46.3422 151.9 46.0126C151.703 45.7488 151.373 45.6171 150.977 45.6171C150.581 45.6171 150.252 45.7488 149.922 46.0784C149.592 46.3422 149.395 46.7377 149.263 47.1991H152.098Z" fill="#303030"/>
<path d="M158.425 50.5611C157.898 50.8247 157.305 50.9566 156.646 50.9566C155.723 50.9566 155.064 50.693 154.536 50.0996C154.009 49.5064 153.81 48.7812 153.943 47.9242C154.075 46.9354 154.47 46.1444 155.129 45.4852C155.789 44.8919 156.646 44.5623 157.635 44.5623C158.162 44.5623 158.689 44.6283 159.085 44.826L158.952 46.0784C158.557 45.7488 158.095 45.6171 157.635 45.6171C157.041 45.6171 156.579 45.8148 156.118 46.2103C155.723 46.6058 155.459 47.1333 155.393 47.7265C155.327 48.3857 155.459 48.8472 155.789 49.2427C156.118 49.6381 156.579 49.77 157.173 49.77C157.7 49.77 158.162 49.5723 158.623 49.2427L158.425 50.5611Z" fill="#303030"/>
<path d="M164.819 50.8247H163.435L163.567 49.8359C163.105 50.5611 162.446 50.9566 161.589 50.9566C160.139 50.9566 159.545 50.0996 159.677 48.3857L160.072 44.76H161.457L161.061 48.2538C160.929 49.3745 161.324 49.9019 162.181 49.9019C162.578 49.9019 162.973 49.77 163.237 49.4404C163.567 49.1108 163.698 48.7153 163.764 48.2538L164.16 44.76H165.544L164.819 50.8247Z" fill="#303030"/>
<path d="M170.422 46.0126C170.29 45.8807 170.025 45.8149 169.696 45.8149C169.3 45.8149 168.905 46.0126 168.576 46.3422C168.246 46.7377 168.048 47.1992 167.982 47.8584L167.652 50.7589H166.269L166.927 44.6942H168.311L168.179 45.9466C168.378 45.5511 168.576 45.1556 168.905 44.9579C169.235 44.6942 169.565 44.6283 169.893 44.6283C170.157 44.6283 170.355 44.6942 170.487 44.76L170.422 46.0126Z" fill="#303030"/>
<path d="M171.939 50.8248H170.555L171.213 44.7601H172.597L171.939 50.8248ZM172.07 43.4417C171.873 43.4417 171.675 43.3758 171.543 43.244C171.412 43.1121 171.345 42.9144 171.345 42.7166C171.345 42.5189 171.477 42.3211 171.675 42.1234C171.873 41.9915 172.07 41.9255 172.269 41.9255C172.532 41.9255 172.664 41.9915 172.862 42.1234C172.994 42.2551 173.059 42.453 173.059 42.7166C173.059 42.9144 172.927 43.1121 172.73 43.244C172.466 43.3758 172.269 43.4417 172.07 43.4417Z" fill="#303030"/>
<path d="M176.686 50.7588C176.421 50.8907 176.026 50.9567 175.564 50.9567C174.378 50.9567 173.85 50.3634 173.982 49.2427L174.378 45.8148H173.39L173.521 44.7601H174.51L174.642 43.3758L176.092 42.9802L175.894 44.7601H177.344L177.213 45.8148H175.762L175.432 48.8472C175.367 49.1768 175.432 49.4405 175.564 49.6383C175.697 49.7701 175.894 49.9019 176.224 49.9019C176.487 49.9019 176.686 49.836 176.883 49.7041L176.686 50.7588Z" fill="#303030"/>
<path d="M178.928 50.8248H177.543L178.203 44.7601H179.587L178.928 50.8248ZM179.06 43.4417C178.862 43.4417 178.663 43.3758 178.532 43.244C178.4 43.1121 178.335 42.9144 178.335 42.7166C178.335 42.5189 178.466 42.3211 178.663 42.1234C178.862 41.9915 179.06 41.9255 179.257 41.9255C179.52 41.9255 179.652 41.9915 179.85 42.1234C179.982 42.2551 180.049 42.453 180.049 42.7166C180.049 42.9144 179.917 43.1121 179.719 43.244C179.52 43.3758 179.323 43.4417 179.06 43.4417Z" fill="#303030"/>
<path d="M185.913 48.122H181.76C181.694 48.7153 181.826 49.1108 182.156 49.4404C182.486 49.77 182.881 49.9019 183.474 49.9019C184.133 49.9019 184.726 49.7041 185.32 49.3085L185.188 50.4292C184.595 50.7588 183.804 50.9566 182.947 50.9566C182.024 50.9566 181.365 50.693 180.903 50.0996C180.442 49.5723 180.31 48.7812 180.377 47.7923C180.508 46.8695 180.837 46.0784 181.497 45.4852C182.156 44.8919 182.881 44.5623 183.673 44.5623C184.53 44.5623 185.122 44.826 185.518 45.3533C185.913 45.8807 186.045 46.6058 185.979 47.5946L185.913 48.122ZM184.661 47.1991C184.727 46.6718 184.661 46.3422 184.463 46.0126C184.265 45.7488 183.936 45.6171 183.54 45.6171C183.144 45.6171 182.816 45.7488 182.486 46.0784C182.156 46.3422 181.957 46.7377 181.826 47.1991H184.661Z" fill="#303030"/>
<path d="M186.244 50.627L186.376 49.3746C186.838 49.77 187.431 49.9678 188.025 49.9678C188.882 49.9678 189.277 49.7042 189.342 49.2427C189.342 49.1108 189.342 48.9789 189.277 48.9131C189.21 48.8472 189.145 48.7153 189.013 48.6495C188.882 48.5835 188.75 48.5176 188.618 48.4516C188.485 48.3857 188.288 48.3199 188.09 48.2539C187.826 48.122 187.628 48.0561 187.431 47.9243C187.233 47.7924 187.101 47.6606 186.969 47.5288C186.838 47.3969 186.771 47.1992 186.706 47.0673C186.639 46.8696 186.639 46.6718 186.706 46.4741C186.706 46.2103 186.838 45.9466 186.969 45.683C187.101 45.4853 187.365 45.2875 187.563 45.0896C187.826 44.9579 188.09 44.826 188.42 44.76C188.75 44.6942 189.013 44.6283 189.342 44.6283C189.935 44.6283 190.397 44.6942 190.859 44.8919L190.727 46.0785C190.332 45.8149 189.87 45.6171 189.277 45.6171C189.078 45.6171 188.947 45.6171 188.815 45.683C188.683 45.7489 188.552 45.7489 188.42 45.8149C188.288 45.8807 188.222 45.9466 188.156 46.0126C188.09 46.0785 188.025 46.2103 188.025 46.2762C188.025 46.4081 188.025 46.5399 188.09 46.6058C188.156 46.6718 188.222 46.8037 188.288 46.8696C188.42 46.9354 188.485 47.0014 188.683 47.0673C188.815 47.1333 189.013 47.1992 189.21 47.265C189.475 47.3969 189.672 47.4628 189.87 47.5946C190.067 47.7265 190.199 47.8584 190.332 47.9903C190.464 48.122 190.529 48.3199 190.595 48.4516C190.661 48.6493 190.661 48.8472 190.661 49.1108C190.595 49.4404 190.529 49.7042 190.332 49.9019C190.134 50.0996 189.935 50.2974 189.672 50.4951C189.408 50.627 189.145 50.7589 188.815 50.8247C188.485 50.8907 188.156 50.9566 187.826 50.9566C187.299 50.9566 186.706 50.8247 186.244 50.627Z" fill="#303030"/>
<path d="M197.978 47.7266C197.847 48.7154 197.517 49.5064 196.99 50.0997C196.463 50.6929 195.737 50.9567 194.881 50.9567C194.485 50.9567 194.155 50.8907 193.957 50.8248L194.089 49.5064C194.287 49.6382 194.617 49.7701 194.946 49.7701C195.869 49.7701 196.463 49.0449 196.594 47.5947L197.188 42.387H198.637L197.978 47.7266Z" fill="#303030"/>
<path d="M203.908 50.8247H202.591L202.723 49.9019C202.194 50.627 201.536 51.0226 200.745 51.0226C200.152 51.0226 199.69 50.8907 199.36 50.5611C199.031 50.2315 198.965 49.836 198.965 49.2427C199.097 48.122 199.822 47.3969 201.206 47.265L203.051 47.0014C203.118 46.1445 202.788 45.683 201.931 45.683C201.206 45.683 200.547 45.9466 199.888 46.4081L200.02 45.2215C200.679 44.826 201.47 44.6283 202.327 44.6283C203.843 44.6283 204.568 45.3534 204.37 46.8696L203.908 50.8247ZM202.854 47.7924L201.536 47.9903C201.141 48.0561 200.811 48.122 200.614 48.2539C200.415 48.3857 200.284 48.6495 200.217 48.9789C200.217 49.2427 200.284 49.4404 200.415 49.6382C200.614 49.77 200.81 49.9019 201.14 49.9019C201.536 49.9019 201.931 49.77 202.261 49.4404C202.591 49.1768 202.723 48.7812 202.788 48.3199L202.854 47.7924Z" fill="#303030"/>
<path d="M206.812 49.9019L206.351 53.5934H204.967L205.955 44.6941H207.339L207.208 45.7488C207.801 44.9579 208.526 44.5623 209.449 44.5623C210.24 44.5623 210.767 44.826 211.162 45.3533C211.559 45.8807 211.691 46.6058 211.559 47.5287C211.426 48.5176 211.097 49.3745 210.569 49.9677C210.042 50.5611 209.317 50.8907 208.46 50.8907C207.669 50.9566 207.141 50.627 206.812 49.9019ZM207.009 47.5287L206.944 48.2538C206.878 48.7153 207.009 49.0449 207.273 49.3745C207.538 49.7041 207.866 49.836 208.328 49.836C208.855 49.836 209.252 49.6381 209.58 49.2426C209.91 48.8472 210.109 48.3198 210.174 47.5946C210.24 47.0014 210.174 46.5399 209.91 46.2103C209.647 45.8807 209.317 45.683 208.855 45.683C208.395 45.683 207.933 45.8807 207.603 46.2103C207.273 46.5399 207.076 47.0014 207.009 47.5287Z" fill="#303030"/>
<path d="M217.027 50.8247H215.709L215.84 49.9019C215.314 50.627 214.655 51.0226 213.863 51.0226C213.27 51.0226 212.809 50.8907 212.479 50.5611C212.149 50.2315 212.084 49.836 212.084 49.2427C212.216 48.122 212.941 47.3969 214.325 47.265L216.17 47.0014C216.237 46.1445 215.907 45.683 215.05 45.683C214.325 45.683 213.666 45.9466 213.006 46.4081L213.138 45.2215C213.798 44.826 214.588 44.6283 215.445 44.6283C216.962 44.6283 217.686 45.3534 217.489 46.8696L217.027 50.8247ZM216.039 47.7924L214.72 47.9903C214.325 48.0561 213.995 48.122 213.798 48.2539C213.6 48.3857 213.468 48.6495 213.401 48.9789C213.401 49.2427 213.468 49.4404 213.6 49.6382C213.798 49.77 213.995 49.9019 214.325 49.9019C214.72 49.9019 215.115 49.77 215.445 49.4404C215.775 49.1768 215.907 48.7812 215.972 48.3199L216.039 47.7924Z" fill="#303030"/>
<path d="M223.884 50.8247H222.5L222.895 47.3969C223.027 46.2762 222.697 45.683 221.84 45.683C221.445 45.683 221.049 45.8149 220.719 46.1445C220.389 46.4741 220.258 46.8696 220.193 47.331L219.797 50.8247H218.412L219.072 44.76H220.456L220.324 45.7489C220.851 44.9579 221.576 44.6283 222.433 44.6283C223.092 44.6283 223.554 44.826 223.884 45.2875C224.214 45.7489 224.279 46.3422 224.214 47.1333L223.884 50.8247Z" fill="#303030"/>
<path d="M80.2415 8.50391H72.5289L70.2217 30.3895H76.0886L76.8137 23.2701H78.3299C80.769 23.336 82.9444 22.6768 84.7242 21.2924C86.57 19.9081 87.6247 18.0624 87.8224 15.7551C88.0203 13.5798 87.6247 11.7999 86.5041 10.6134C85.3175 9.22903 83.208 8.50391 80.2415 8.50391ZM77.9344 13.382H79.1869C80.3076 13.382 81.0986 13.5798 81.4941 14.0412C81.8237 14.4368 81.9556 14.9641 81.8896 15.7551C81.6919 17.6009 80.6372 18.392 78.4618 18.392H77.4071L77.9344 13.382Z" fill="#0D688F"/>
<path d="M99.4262 13.9752C97.9759 13.9752 96.7234 14.4367 95.6027 15.2277L96.4597 7.31726H90.6587L88.2197 30.3894H94.0207L94.9435 21.4242C95.0095 20.6333 95.2731 19.9741 95.8006 19.4466C96.2619 18.9852 96.7893 18.7215 97.3826 18.7215C97.8441 18.7215 98.1737 18.8534 98.3715 19.0511C98.7011 19.4466 98.8328 20.1718 98.7011 21.2265L97.7122 30.3235H103.513L104.502 20.6991C104.766 18.326 104.37 16.4802 103.315 15.3595C102.458 14.5026 101.14 13.9752 99.4262 13.9752Z" fill="#0D688F"/>
<path d="M106.149 30.3895H111.95L113.664 14.3048H107.863L106.149 30.3895Z" fill="#0D688F"/>
<path d="M111.422 7.4491C110.499 7.4491 109.774 7.71277 109.115 8.24014C108.456 8.76751 108.06 9.49263 107.994 10.3496C107.928 11.2066 108.192 11.9976 108.719 12.525C109.313 13.1183 110.038 13.382 110.961 13.382C111.884 13.382 112.675 13.1183 113.268 12.5909C113.927 12.0635 114.323 11.3384 114.389 10.4814C114.454 9.62448 114.257 8.89935 113.664 8.30607C113.136 7.71277 112.345 7.4491 111.422 7.4491Z" fill="#0D688F"/>
<path d="M114.851 30.3894H120.586L123.025 7.38318H117.224L114.851 30.3894Z" fill="#0D688F"/>
<path d="M123.485 30.3894H129.22L131.66 7.38318H125.858L123.485 30.3894Z" fill="#0D688F"/>
<path d="M139.636 8.30607C139.109 7.71277 138.317 7.4491 137.395 7.4491C136.472 7.4491 135.746 7.71277 135.088 8.24014C134.429 8.76751 134.032 9.49263 133.967 10.3496C133.901 11.2066 134.164 11.9976 134.692 12.525C135.286 13.1183 136.011 13.382 136.933 13.382C137.857 13.382 138.647 13.1183 139.241 12.5909C139.899 12.0635 140.296 11.3384 140.361 10.4814C140.428 9.62448 140.164 8.89935 139.636 8.30607Z" fill="#0D688F"/>
<path d="M132.121 30.3895H137.856L139.57 14.3048H133.768L132.121 30.3895Z" fill="#0D688F"/>
<path d="M152.225 13.9753C150.709 13.9753 149.325 14.4367 148.138 15.2936L148.27 14.305H142.47L140.096 37.0474H145.897L146.688 29.6643C147.545 30.3895 148.665 30.7191 149.984 30.7191C152.16 30.7191 154.005 29.928 155.521 28.28C156.971 26.6979 157.895 24.5884 158.158 22.0176C158.422 19.6444 158.027 17.6668 157.038 16.2166C155.917 14.7663 154.335 13.9753 152.225 13.9753ZM152.225 21.8857C152.093 23.2041 151.698 24.2588 151.171 24.984C150.643 25.6433 149.984 25.9729 149.127 25.9729C148.468 25.9729 148.007 25.775 147.677 25.3136C147.281 24.7863 147.15 24.1271 147.281 23.336L147.413 22.0836C147.545 21.0947 147.875 20.3036 148.402 19.7104C148.929 19.1171 149.589 18.8533 150.314 18.8533C150.973 18.8533 151.5 19.0512 151.764 19.3808C152.225 19.7763 152.357 20.6991 152.225 21.8857Z" fill="#0D688F"/>
<path d="M181.231 21.2266C181.164 21.3585 181.099 21.4902 181.033 21.6221C181.033 21.5562 180.967 21.4243 180.967 21.3584L177.737 8.50391H170.156L167.85 30.3895H173.32L174.574 18.392L177.737 30.3895H182.286L187.757 18.5238L186.504 30.3895H192.306L194.612 8.50391H187.164L181.231 21.2266Z" fill="#0D688F"/>
<path d="M213.401 8.50391H195.932L195.405 13.5798H201.206L199.425 30.3895H205.292L207.073 13.5798H212.873L213.401 8.50391Z" fill="#0D688F"/>
<path d="M227.442 13.5138L227.97 8.50391H215.708L213.467 21.3584L214.456 21.2266C215.84 21.0947 217.027 20.9628 218.082 20.9628C219.466 20.9628 220.521 21.2266 220.981 21.7539C221.311 22.0835 221.443 22.6109 221.378 23.2701C221.311 24.0612 220.981 24.7204 220.389 25.1818C219.796 25.6432 218.939 25.907 217.95 25.907C216.5 25.907 215.181 25.5114 213.994 24.7204L212.94 24.0612L212.347 29.5325L212.874 29.7303C214.258 30.3895 215.971 30.6532 218.015 30.6532C220.586 30.6532 222.762 29.928 224.409 28.5437C226.058 27.0935 227.047 25.2478 227.31 23.0064C227.508 20.897 227.047 19.2489 225.86 17.9965C224.674 16.7439 222.96 16.1507 220.785 16.1507C220.455 16.1507 220.059 16.1507 219.664 16.1507L220.124 13.448H227.442V13.5138Z" fill="#0D688F"/>
<path d="M36.0766 0H8.85141C7.20339 0 5.88498 1.25249 5.68723 2.83458L0.0180634 56.4279C-0.179698 58.2737 1.27055 59.9217 3.18224 59.9217H17.2233C18.8713 59.9217 20.1897 58.6693 20.3875 57.0871L21.7059 44.6281C21.9037 42.9802 23.2221 41.7937 24.8701 41.7937C27.6387 41.7937 31.3962 41.7937 31.7258 41.7937C43.262 41.7937 53.6114 32.4329 54.798 20.8968C55.9846 9.36072 47.6126 0 36.0766 0Z" fill="url(#paint0_linear)"/>
<path d="M4.56686 13.25C4.56686 13.25 -0.179408 14.5026 0.150194 18.6555C1.27084 22.413 2.98478 28.4117 2.98478 28.4117L4.56686 13.25Z" fill="#0F385B"/>
<path d="M19.531 14.7003C20.388 16.0187 21.5087 17.7985 22.3656 19.1829C11.0932 24.6543 3.57826 24.7201 0.150391 18.6554L2.91905 28.3458C7.2698 34.2128 17.2237 34.2787 28.4962 28.8073C29.3531 30.1256 30.4738 31.9055 31.3308 33.2898C36.6704 24.5224 40.1641 12.7886 40.1641 12.7886C40.1641 12.7886 22.3656 14.5684 19.531 14.7003Z" fill="url(#paint1_linear)"/>
<defs>
<linearGradient id="paint0_linear" x1="0.0180634" y1="29.9588" x2="54.871" y2="29.9588" gradientUnits="userSpaceOnUse">
<stop offset="0.1764" stop-color="#F99B26"/>
<stop offset="0.7726" stop-color="#FAC81F"/>
</linearGradient>
<linearGradient id="paint1_linear" x1="2.23572" y1="16.9492" x2="33.8007" y2="24.8404" gradientUnits="userSpaceOnUse">
<stop offset="0.1183" stop-color="#066C8B"/>
<stop offset="0.5286" stop-color="#2689C7"/>
<stop offset="0.9043" stop-color="#31B8E4"/>
</linearGradient>
</defs>
</svg>
